<?xml version="1.0" encoding="utf-8"?>
<!-- Generator: Adobe Illustrator 16.0.0, SVG Export Plug-In . SVG Version: 6.00 Build 0)  -->
<!DOCTYPE svg PUBLIC "-//W3C//DTD SVG 1.1//EN" "http://www.w3.org/Graphics/SVG/1.1/DTD/svg11.dtd">
<svg version="1.1" id="Layer_1" xmlns="http://www.w3.org/2000/svg" xmlns:xlink="http://www.w3.org/1999/xlink" x="0px" y="0px"
	 width="18.997px" height="15.917px" viewBox="0.188 0 18.997 15.917" enable-background="new 0.188 0 18.997 15.917"
	 xml:space="preserve">
<g>
	<path fill="#222222" d="M4.014,15.917H0.188V0h3.826V15.917z"/>
	<path fill="#222222" d="M6.681,15.917V0h5.126c1.406,0,2.671,0.319,3.793,0.957s2,1.537,2.631,2.699
		c0.63,1.162,0.947,2.466,0.954,3.91v0.732c0,1.458-0.306,2.761-0.922,3.918c-0.615,1.154-1.483,2.058-2.601,2.709
		c-1.119,0.654-2.369,0.984-3.746,0.992H6.681z M10.518,2.963v10.002h1.332c1.101,0,1.945-0.395,2.537-1.178
		c0.59-0.783,0.885-1.945,0.885-3.491V7.609c0-1.538-0.295-2.696-0.885-3.476c-0.592-0.78-1.451-1.169-2.58-1.169H10.518z"/>
</g>
</svg>
