<?xml version="1.0" encoding="utf-8"?>
<!-- Generator: Adobe Illustrator 16.0.0, SVG Export Plug-In . SVG Version: 6.00 Build 0)  -->
<!DOCTYPE svg PUBLIC "-//W3C//DTD SVG 1.1//EN" "http://www.w3.org/Graphics/SVG/1.1/DTD/svg11.dtd">
<svg version="1.1" id="Layer_1" xmlns="http://www.w3.org/2000/svg" xmlns:xlink="http://www.w3.org/1999/xlink" x="0px" y="0px"
	 width="16px" height="21px" viewBox="0 0 16 21" enable-background="new 0 0 16 21" xml:space="preserve">
<path fill="#FFFFFF" d="M14,7h-1V5c0-2.76-2.24-5-5-5S3,2.24,3,5v2H2C0.9,7,0,7.9,0,9v10c0,1.1,0.9,2,2,2h12c1.1,0,2-0.9,2-2V9
	C16,7.9,15.1,7,14,7z M8,16c-1.1,0-2-0.9-2-2s0.9-2,2-2s2,0.9,2,2S9.1,16,8,16z M11.1,7H4.9V5c0-1.71,1.39-3.1,3.1-3.1
	s3.1,1.39,3.1,3.1V7z"/>
</svg>
